# AST/ASF file generated using VICON BodyLanguage
# -----------------------------------------------
:version 1.10
:name VICON
:units
  mass 1.0
  length 0.45
  angle deg
:documentation
   .ast/.asf automatically generated from VICON data using
   VICON BodyBuilder and BodyLanguage model FoxedUp or BRILLIANT.MOD
:root
   order TX TY TZ RX RY RZ
   axis XYZ
   position 0 0 0  
   orientation 0 0 0 
:bonedata
  begin
     id 1 
     name lhipjoint
     direction 0.710188 -0.616876 0.339259 
     length 2.5669 
     axis 0 0 0  XYZ
  end
  begin
     id 2 
     name lfemur
     direction 0.34202 -0.939693 0  
     length 7.12796  
     axis 0 0 20  XYZ
    dof rx ry rz
    limits (-160.0 20.0)
           (-70.0 70.0)
           (-60.0 70.0)
  end
  begin
     id 3 
     name ltibia
     direction 0.34202 -0.939693 0   
     length 7.58108   
     axis 0 0 20   XYZ
    dof rx
    limits (-10.0 170.0)
  end
  begin
     id 4 
     name lfoot
     direction 0.0669471 -0.183936 0.980656   
     length 2.17365   
     axis -90 7.62852e-016 20   XYZ
    dof rx rz
    limits (-45.0 90.0)
           (-70.0 20.0)
  end
  begin
     id 5 
     name ltoes
     direction 1.53508e-011 -4.21705e-011 1   
     length 1.09427   
     axis -90 7.62852e-016 20   XYZ
    dof rx
    limits (-90.0 20.0)
  end
  begin
     id 6 
     name rhipjoint
     direction -0.700191 -0.625589 0.34405   
     length 2.53115  
     axis 0 0 0  XYZ 
  end
  begin
     id 7 
     name rfemur
     direction -0.34202 -0.939693 0   
     length 7.33006   
     axis 0 0 -20   XYZ
    dof rx ry rz
    limits (-160.0 20.0)
           (-70.0 70.0)
           (-70.0 60.0)
  end
  begin
     id 8 
     name rtibia
     direction -0.34202 -0.939693 0   
     length 7.64926   
     axis 0 0 -20   XYZ
    dof rx
    limits (-10.0 170.0)
 end
 begin
     id 9 
     name rfoot
     direction -0.0688927 -0.189281 0.979503   
     length 2.20493  
     axis -90 -7.62852e-016 -20   XYZ
    dof rx rz
    limits (-45.0 90.0)
           (-20.0 70.0)
  end
  begin
     id 10 
     name rtoes
     direction -1.53567e-011 -4.21933e-011 1   
     length 1.10919   
     axis -90 -7.62852e-016 -20   XYZ
    dof rx
    limits (-90.0 20.0)
  end
  begin
     id 11 
     name lowerback
     direction -0.0167868 0.989873 -0.140959   
     length 2.14596   
     axis 0 0 0   XYZ
    dof rx ry rz
    limits (-20.0 45.0)
           (-30.0 30.0)
           (-30.0 30.0)
  end
  begin
     id 12 
     name upperback
     direction 0.0129109 0.998033 0.0613525   
     length 2.10457   
     axis 0 0 0   XYZ
    dof rx ry rz
    limits (-20.0 45.0)
           (-30.0 30.0)
           (-30.0 30.0)
  end
  begin
     id 13 
     name thorax
     direction 0.0177047 0.991119 0.131797   
     length 2.17652   
     axis 0 0 0   XYZ
    dof rx ry rz
    limits (-20.0 45.0)
           (-30.0 30.0)
           (-30.0 30.0)
  end
  begin
     id 14 
     name lowerneck
     direction -0.0336893 0.997548 0.0613464   
     length 1.8912   
     axis 0 0 0   XYZ
    dof rx ry rz
    limits (-20.0 45.0)
           (-30.0 30.0)
           (-30.0 30.0)
  end
  begin
     id 15 
     name upperneck
     direction 0.0435909 0.997179 -0.0611028   
     length 1.8829   
     axis 0 0 0   XYZ
    dof rx ry rz
    limits (-20.0 45.0)
           (-30.0 30.0)
           (-30.0 30.0)
  end
  begin
     id 16
     name head
     direction 0.0175076 0.999444 -0.0283782  
     length 1.93197  
     axis 0 0 0   XYZ
    dof rx ry rz
    limits (-20.0 45.0)
           (-30.0 30.0)
           (-30.0 30.0)
  end
  begin
     id 17 
     name lclavicle
     direction 0.919164 0.389875 0.0559876  
     length 3.60004  
     axis 0 0 0   XYZ
    dof ry rz
    limits (-20.0 10.0)
           (0.0 20.0)
  end
  begin
     id 18 
     name lhumerus
     direction 1 -4.48958e-011 6.89191e-027   
     length 5.43301   
     axis 180 -30 -90   XYZ
    dof rx ry rz
    limits (-60.0 90.0)
           (-90.0 90.0)
           (-90.0 90.0)
  end
  begin
     id 19
     name lradius
     direction 1 -4.4897e-011 3.24727e-027   
     length 3.15936   
     axis 180 -30 -90   XYZ
    dof rx
    limits (-10.0 170.0)
  end
  begin
     id 20
     name lwrist
     direction 1 -4.4897e-011 9.00228e-027   
     length 1.57968   
     axis -6.29373e-015 90 90   XYZ
    dof ry
    limits (-180.0 0.0)
 end
  begin
     id 21 
     name lhand
     direction 1 -4.48968e-011 1.80042e-026   
     length 0.712827   
     axis -1.14882e-014 90 90   XYZ
    dof rx rz
    limits (-90.0 90.0)
           (-45.0 45.0)
  end
  begin
     id 22 
     name lfingers
     direction 1 -4.49019e-011 3.60267e-026   
     length 0.574699   
     axis -2.29769e-014 90 90   XYZ
    dof rx
    limits (0.0 90.0)
  end
  begin
     id 23
     name lthumb
     direction 0.707107 -6.3498e-011 0.707107   
     length 0.825157   
     axis -90 45 5.37419e-014   XYZ
    dof rx rz
    limits (-45.0 45.0)
           (-45.0 45.0)
  end
  begin
     id 24 
     name rclavicle
     direction -0.890334 0.455305 -0.00132111   
     length 3.51494  
     axis 0 0 0   XYZ 
    dof ry rz
    limits (-10.0 20.0)
           (-20.0 0.0)
  end
  begin
     id 25 
     name rhumerus
     direction -1 -4.48967e-011 5.07175e-028  
     length 5.34194   
     axis 180 30 90   XYZ
    dof rx ry rz
    limits (-90.0 60.0)
           (-90.0 90.0)
           (-90.0 90.0)
  end
  begin
     id 26 
     name rradius
     direction -1 -4.48955e-011 3.30467e-027   
     length 3.19351   
     axis 180 30 90   XYZ
    dof rx
    limits (-10.0 170.0)
  end
  begin
     id 27 
     name rwrist
     direction -1 -4.48968e-011 9.00208e-027   
     length 1.59676   
     axis -6.29373e-015 -90 -90   XYZ
    dof ry
    limits (-180.0 0.0)
  end
  begin
     id 28
     name rhand
     direction -1 -4.49e-011 1.80099e-026   
     length 0.743862   
     axis -1.14882e-014 -90 -90   XYZ
    dof rx rz
    limits (-90.0 90.0)
           (-45.0 45.0)
  end
  begin
     id 29
     name rfingers
     direction -1 -4.49009e-011 3.6023e-026   
     length 0.599721   
     axis -2.29769e-014 -90 -90   XYZ
    dof rx
    limits (0.0 90.0)
  end
  begin
     id 30
     name rthumb
     direction -0.707107 -6.35025e-011 0.707107   
     length 0.861083   
     axis -90 -45 -5.37419e-014   XYZ
    dof rx rz
    limits (-45.0 45.0)
           (-45.0 45.0)
  end
:hierarchy
  begin
    root lhipjoint rhipjoint lowerback
    lhipjoint lfemur
    lfemur ltibia
    ltibia lfoot
    lfoot ltoes
    rhipjoint rfemur
    rfemur rtibia
    rtibia rfoot
    rfoot rtoes
    lowerback upperback
    upperback thorax
    thorax lowerneck lclavicle rclavicle
    lowerneck upperneck
    upperneck head
    lclavicle lhumerus
    lhumerus lradius
    lradius lwrist
    lwrist lhand lthumb
    lhand lfingers
    rclavicle rhumerus
    rhumerus rradius
    rradius rwrist
    rwrist rhand rthumb
    rhand rfingers
  end

#!OML:ASF H:\Martial Arts Walks\Project 1\Capture day 1\Session 1\male.ASF
:FULLY-SPECIFIED
:DEGREES
269
root 0.635368 14.5961 -26.3769 10.6078 -18.0516 1.76563
lowerback 13.3068 -0.234543 -8.29286
upperback -1.80238 -1.51684 1.91436
thorax -9.20926 -0.234722 7.1143
lowerneck -4.3252 2.22999 -2.3003
upperneck 1.16752 3.06382 1.44862
head 1.02359 1.54154 0.896684
rclavicle 2.5842e-014 -6.16232e-015
rhumerus -64.2801 14.0361 -91.8354
rradius 92.0627
rwrist -50.9133
rhand 4.61802 -17.9298
rfingers 7.12502
rthumb 30.0056 -45.516
lclavicle 2.5842e-014 -6.16232e-015
lhumerus 3.50031 -22.6784 71.4336
lradius 38.5011
lwrist -25.686
lhand -19.5709 27.7269
lfingers 7.12502
lthumb 6.75406 57.5991
rfemur -21.8617 -2.94005 5.84569
rtibia 89.127
rfoot 10.9861 6.35031
rtoes -15.6818
lfemur -53.2524 19.4413 -29.632
ltibia 76.6039
lfoot -21.0156 28.5917
ltoes -7.29593
270
root 0.638738 14.6062 -26.2472 9.96136 -17.8725 2.67851
lowerback 13.7852 -0.175832 -9.21365
upperback -1.7158 -1.6569 1.68171
thorax -9.35451 -0.254687 7.43192
lowerneck -4.25966 2.18989 -2.32077
upperneck 1.14261 3.00961 1.47144
head 1.00507 1.51462 0.904739
rclavicle -5.06901e-015 -2.44505e-014
rhumerus -63.3325 13.7026 -91.8699
rradius 91.5276
rwrist -50.663
rhand 3.68597 -19.1192
rfingers 7.12502
rthumb 29.1159 -46.863
lclavicle -5.06901e-015 -2.44505e-014
lhumerus 3.69569 -23.1809 70.8955
lradius 38.7015
lwrist -25.4821
lhand -19.4882 27.4166
lfingers 7.12502
lthumb 6.83388 57.2863
rfemur -25.277 -3.7651 6.21804
rtibia 92.9261
rfoot 8.95019 4.68277
rtoes -15.669
lfemur -51.8364 18.9637 -30.331
ltibia 76.0568
lfoot -21.1019 28.9657
ltoes -7.86578
271
root 0.63852 14.6134 -26.115 9.27308 -17.666 3.53875
lowerback 14.3031 -0.103086 -10.097
upperback -1.61317 -1.78594 1.44779
thorax -9.50464 -0.270906 7.72545
lowerneck -4.20021 2.13402 -2.32469
upperneck 1.12599 2.93332 1.5055
head 0.990766 1.47689 0.913348
rclavicle -3.62782e-014 2.38542e-015
rhumerus -62.3927 13.4653 -92.0218
rradius 91.1166
rwrist -50.7679
rhand 2.50336 -20.6068
rfingers 7.12502
rthumb 27.9859 -48.5404
lclavicle -3.62782e-014 2.38542e-015
lhumerus 3.94757 -23.6857 70.3417
lradius 38.8319
lwrist -25.2514
lhand -19.4187 27.1381
lfingers 7.12502
lthumb 6.90098 57.0056
rfemur -28.6894 -4.54901 6.84581
rtibia 96.2926
rfoot 6.986 2.54417
rtoes -15.2461
lfemur -50.357 18.5503 -30.9575
ltibia 75.5363
lfoot -21.2385 29.316
ltoes -8.39918
272
root 0.636171 14.6171 -25.9787 8.58181 -17.3256 4.32078
lowerback 14.8266 -0.0566544 -10.8639
upperback -1.50106 -1.93882 1.22324
thorax -9.64113 -0.305162 7.96724
lowerneck -4.13654 2.05742 -2.32324
upperneck 1.11425 2.82872 1.55286
head 0.977813 1.42518 0.92472
rclavicle 1.61761e-014 -9.74045e-015
rhumerus -61.4908 13.3292 -92.2814
rradius 90.9236
rwrist -51.1983
rhand 1.08157 -22.3075
rfingers 7.12502
rthumb 26.6259 -50.4553
lclavicle 1.61761e-014 -9.74045e-015
lhumerus 4.27057 -24.1807 69.8052
lradius 38.8502
lwrist -25.0334
lhand -19.3721 26.882
lfingers 7.12502
lthumb 6.94599 56.748
rfemur -32.0609 -5.34318 7.75408
rtibia 99.1729
rfoot 4.95719 0.157111
rtoes -14.6108
lfemur -48.8479 18.0966 -31.4853
ltibia 75.0575
lfoot -21.4411 29.6308
ltoes -8.88424
273
root 0.631379 14.6174 -25.8371 7.9086 -16.8753 4.97888
lowerback 15.3263 -0.0238034 -11.4848
upperback -1.37289 -2.08529 1.02143
thorax -9.74624 -0.345927 8.14784
lowerneck -4.08495 1.95332 -2.328
upperneck 1.11237 2.68745 1.62498
head 0.970545 1.35546 0.944597
rclavicle -9.93923e-017 1.15295e-014
rhumerus -60.6538 13.2873 -92.6325
rradius 91.0459
rwrist -51.7984
rhand -0.477827 -24.05
rfingers 7.12502
rthumb 25.1326 -52.4157
lclavicle -9.93923e-017 1.15295e-014
lhumerus 4.70188 -24.6587 69.3152
lradius 38.7073
lwrist -24.8745
lhand -19.3294 26.6208
lfingers 7.12502
lthumb 6.98714 56.4854
rfemur -35.3869 -6.05598 8.96897
rtibia 101.533
rfoot 2.77078 -2.2954
rtoes -13.7869
lfemur -47.3244 17.6375 -31.8741
ltibia 74.6356
lfoot -21.7219 29.9038
ltoes -9.35225
274
root 0.624144 14.6151 -25.6889 7.26168 -16.3001 5.49935
lowerback 15.7864 -0.00772131 -11.9505
upperback -1.23057 -2.22102 0.856183
thorax -9.81453 -0.391881 8.27613
lowerneck -4.02741 1.81778 -2.35131
upperneck 1.11617 2.50465 1.71424
head 0.964731 1.26509 0.972288
rclavicle 8.72168e-015 1.02374e-014
rhumerus -59.9098 13.343 -93.0522
rradius 91.5704
rwrist -52.3954
rhand -2.02235 -25.701
rfingers 7.12502
rthumb 23.652 -54.266
lclavicle 8.72168e-015 1.02374e-014
lhumerus 5.26571 -25.1162 68.9084
lradius 38.3481
lwrist -24.8291
lhand -19.3079 26.2984
lfingers 7.12502
lthumb 7.00799 56.1624
rfemur -38.6372 -6.64927 10.4595
rtibia 103.346
rfoot 0.402757 -4.61535
rtoes -13.0053
lfemur -45.7822 17.1596 -32.1098
ltibia 74.2715
lfoot -22.0813 30.1402
ltoes -9.81863
275
root 0.614463 14.61 -25.5346 6.61752 -15.6636 5.88468
lowerback 16.2287 0.0266989 -12.2925
upperback -1.07245 -2.30471 0.732616
thorax -9.86608 -0.420285 8.36782
lowerneck -3.96518 1.64545 -2.39486
upperneck 1.13367 2.27344 1.80905
head 0.963514 1.15041 1.00449
rclavicle 5.7076e-014 -8.05078e-015
rhumerus -59.2633 13.4916 -93.5082
rradius 92.5461
rwrist -52.807
rhand -3.56143 -27.2316
rfingers 7.12502
rthumb 22.1751 -55.9797
lclavicle 5.7076e-014 -8.05078e-015
lhumerus 5.98307 -25.5626 68.6169
lradius 37.7385
lwrist -24.9708
lhand -19.2972 25.8507
lfingers 7.12502
lthumb 7.01825 55.7143
rfemur -41.7877 -7.0145 12.1504
rtibia 104.598
rfoot -2.02613 -6.63372
rtoes -12.4422
lfemur -44.2024 16.7216 -32.1962
ltibia 73.9628
lfoot -22.5152 30.3483
ltoes -10.3091
276
root 0.602196 14.602 -25.3742 5.98282 -14.9724 6.17484
lowerback 16.6318 0.0859958 -12.5525
upperback -0.907123 -2.33212 0.64583
thorax -9.89943 -0.426915 8.43943
lowerneck -3.89497 1.43332 -2.45823
upperneck 1.17105 1.98981 1.89857
head 0.968631 1.00926 1.03773
rclavicle -1.12313e-014 1.28216e-014
rhumerus -58.6831 13.7317 -93.9708
rradius 93.9774
rwrist -52.9858
rhand -4.49238 -28.2241
rfingers 7.12502
rthumb 21.2811 -57.0758
lclavicle -1.12313e-014 1.28216e-014
lhumerus 6.86898 -26.0236 68.4547
lradius 36.8631
lwrist -25.3725
lhand -19.2517 25.2066
lfingers 7.12502
lthumb 7.0622 55.0688
rfemur -44.8274 -7.14826 13.9169
rtibia 105.298
rfoot -4.34723 -8.23915
rtoes -12.1935
lfemur -42.5985 16.3112 -32.1796
ltibia 73.6959
lfoot -23.0005 30.5412
ltoes -10.8383
277
root 0.587179 14.5909 -25.2085 5.36125 -14.2162 6.41606
lowerback 16.9889 0.168308 -12.7728
upperback -0.743645 -2.3135 0.586991
thorax -9.91847 -0.414072 8.50696
lowerneck -3.81285 1.18253 -2.54383
upperneck 1.23468 1.65521 1.98088
head 0.981563 0.842266 1.07184
rclavicle 1.21756e-014 -3.57812e-015
rhumerus -58.1025 14.0756 -94.4098
rradius 95.832
rwrist -53.0439
rhand -4.76131 -28.5953
rfingers 7.12502
rthumb 21.0227 -57.4758
lclavicle 1.21756e-014 -3.57812e-015
lhumerus 7.92521 -26.5393 68.4178
lradius 35.736
lwrist -26.1017
lhand -19.2156 24.3503
lfingers 7.12502
lthumb 7.09706 54.2113
rfemur -47.7516 -7.08755 15.6284
rtibia 105.478
rfoot -6.4167 -9.37081
rtoes -12.2483
lfemur -40.9814 15.9019 -32.1098
ltibia 73.4521
lfoot -23.5085 30.7263
ltoes -11.4188
278
root 0.569582 14.5773 -25.038 4.74699 -13.3663 6.65926
lowerback 17.3115 0.263567 -12.9876
upperback -0.591112 -2.27249 0.54074
thorax -9.93458 -0.390392 8.57875
lowerneck -3.71565 0.894405 -2.64394
upperneck 1.33768 1.27082 2.05166
head 1.00611 0.649946 1.10425
rclavicle -4.4975e-015 -1.25234e-014
rhumerus -57.4283 14.5369 -94.7921
rradius 98.0583
rwrist -53.2063
rhand -4.40932 -28.2694
rfingers 7.12502
rthumb 21.3609 -57.112
lclavicle -4.4975e-015 -1.25234e-014
lhumerus 9.11418 -27.15 68.4977
lradius 34.4264
lwrist -27.2354
lhand -19.0746 23.2952
lfingers 7.12502
lthumb 7.23311 53.1516
rfemur -50.5448 -6.91 17.1566
rtibia 105.179
rfoot -8.1567 -10.0151
rtoes -12.5178
lfemur -39.3443 15.45 -32.0388
ltibia 73.2029
lfoot -24.0221 30.9031
ltoes -12.0313
279
root 0.549141 14.5625 -24.863 4.13821 -12.4314 6.94784
lowerback 17.5957 0.372357 -13.236
upperback -0.452027 -2.21772 0.488903
thorax -9.94649 -0.358523 8.6583
lowerneck -3.61392 0.572654 -2.76649
upperneck 1.48954 0.841433 2.13533
head 1.04713 0.435004 1.14421
rclavicle 5.96354e-016 -7.95139e-015
rhumerus -56.5436 15.1284 -95.0782
rradius 100.567
rwrist -53.6405
rhand -4.96238 -27.1759
rfingers 7.12502
rthumb 20.8296 -56.0778
lclavicle 5.96354e-016 -7.95139e-015
lhumerus 10.3893 -27.9228 68.6637
lradius 33.0495
lwrist -28.8303
lhand -18.7162 22.132
lfingers 7.12502
lthumb 7.57907 51.9762
rfemur -53.201 -6.6607 18.3984
rtibia 104.438
rfoot -9.54289 -10.1859
rtoes -12.901
lfemur -37.6804 14.9552 -32.0137
ltibia 72.9164
lfoot -24.5256 31.0662
ltoes -12.6714
280
root 0.526063 14.549 -24.6838 3.53558 -11.387 7.29346
lowerback 17.8506 0.480552 -13.5149
upperback -0.328401 -2.16977 0.421928
thorax -9.95724 -0.328335 8.73835
lowerneck -3.50226 0.220466 -2.9183
upperneck 1.69116 0.370797 2.25094
head 1.10445 0.199489 1.19889
rclavicle 2.48978e-014 -9.34288e-015
rhumerus -55.335 15.8489 -95.2015
rradius 103.299
rwrist -54.3631
rhand -4.51521 -25.8281
rfingers 7.12502
rthumb 21.2591 -54.6822
lclavicle 2.48978e-014 -9.34288e-015
lhumerus 11.6742 -28.9635 68.8695
lradius 31.7751
lwrist -30.9223
lhand -17.9824 21.019
lfingers 7.12502
lthumb 8.28733 50.8365
rfemur -55.6857 -6.41907 19.2994
rtibia 103.275
rfoot -10.6361 -9.9096
rtoes -13.2658
lfemur -35.9714 14.3899 -32.0451
ltibia 72.5635
lfoot -25.0247 31.1994
ltoes -13.2927
